<?xml version="1.0" encoding="UTF-8"?>
<svg id="Layer_1" data-name="Layer 1" xmlns="http://www.w3.org/2000/svg" viewBox="0 0 981.47 230.72">
  <defs>
    <style>
      .cls-1 {
        isolation: isolate;
      }

      .cls-2 {
        fill: #9e1313;
      }

      .cls-3 {
        fill: #351616;
      }
    </style>
  </defs>
  <g class="cls-1">
    <g class="cls-1">
      <path class="cls-3" d="M205.9,184.91l-2.62,14.5c-2.86,14.06-4.59,17.71-9.55,17.81-2.48.05-4.98-.57-7.49-1.65l-10.5-5.19c-.91-.43-2.27-.63-3.85-.59-3.38.07-13.5,12.48-13.5,12.48-1.33,1.16-2.67,1.86-4.47,1.9-10.15.22-28.51-34.83-28.51-34.83l-6.84-34.62-4.74-10.28c-2.82,15.86-6.46,25.2-11.35,28.46l-10.46,7.22-6.96,12.12c4.26,8.94-2.46,11.79-4.47,12.74-.23,0-5.1-5.99-5.1-5.99-.23-.45.17-2.49,1.23-5.89.42-1.59.13-4.29-.37-6.76l-9.96-43.36s-4.49-9.38-7.14-17.23c-1.14-.65-3.19-1.29-3.19-1.29-5.77,15.25-8.15,20.04-8.76,23.21l-2.88,13.16c-1.04,4.31-7.85,23.42-10.23,27.99-5.22,9.14-7.83,13.94-8.03,14.85-1.03,4.54-2.32,7.72-3.45,7.75-2.93.06-7.58,4.23-13.68,4.36-6.09.13-8.87-3.2-9.04-10.87-.03-1.35.17-2.71.14-4.07l1.19-18.31.13-15.13c6.5-2.17,7.38-3.32,8.35-10.79,4.75.58,6.81,1.89,6.87,4.59,0,.45.01.68-.2,1.13l-8.55,11.92c-1.76,2.29-3.28,15.65-1.69,36.83,5.42-.12,5.86-.35,7.85-2.43-4.16-4.65-6.04-8-6.1-10.7-.03-1.58-.06-2.93,4.85-5.52l14.63-23.12,11.22-23.94c3.89-7.98,6.05-12.77,6.69-14.37,1.49-4.1,2.8-16.54,2.75-19.02-.06-2.93-2.87-7.39-7.73-12.93-.73-2.47-.53-3.6,1.89-6.81,2.73,1.07,4.79,2.15,5.94,3.26,1.84,1.77,3.45,2.86,4.12,2.62,0,0,5.17-1.24,6.52-1.27,2.26-.05,4.55,1.48,8.77,9.07l5.4,9.59c2.57,4.23,3.53,6.92,16.87,39.37l1.8-.04c15.87-28.56,18.63-36.74,20.31-42.42,1.69-5.45,2.54-7.96,8.18-8.08,1.13-.02,2.03-.04,2.94.39,5.46,1.92,6.17,3.71,9.01,19.9.25,1.12,2.41,7.17,6.25,17.93,5.99,16.12,10.21,23.26,23.4,38.33,8.56,9.75,10.46,14.22,12.07,15.32l8.51,7.27,2.15,5.37c2.5.62,2.28,1.08,5.89,1,4.74-.1,5.4-1.02,8.96-13.74l3.55-13.4.73-8.14c-5.16,1.69-6.04,2.61-8.21,6.72l.79,5.4-1.01,5.44,1.29,7.42c-2.64,2.99-3.33,2.56-6.5,2.17-2.17-6.5-2.87-7.39-7.43-9.55l.71-8.82,9.29-9c4.2-4.15,7.11-5.35,13.43-5.48l-.11,16.03ZM64.65,114.35l-1.11.93,5.16,8.92s.69.44,2.06,1.31c-1.03-5.85-2.43-7.85-6.11-11.16ZM71.47,127.07l.08,3.61c2.38,5.59,3.82,9.85,4.34,12.78,2.32,13.27,5.39,19.75,9.45,19.66,1.58-.03,2.23-1.4,1.29-3.19l-15.15-32.86ZM81.86,179.68l.08,3.84c2.01-1.17,3.11-2.55,2.83-4.8-1.12.48-2.91.97-2.91.97ZM104.68,138.55c-2.83,5.03-3.25,6.39-5.15,12.53l1.35-.03c2.14-5.69,2.78-7.06,5.15-12.53l-1.35.03ZM142.36,169.35l-13.99-31.08-7.22-10.23.15,6.99-3.36,1.2,6.56,21.53.78,15.11c.35,5.86,4.63,15.7,12.13,28.86,5.16,9.15,11.36,13.98,17.23,13.85,3.84-.08,8.5-3.79,13.31-10.9-19.3-26.22-22.04-27.52-25.59-35.34Z"/>
      <path class="cls-3" d="M285.65,208.71c-2.03.04-3.64-1.5-5.55-6.2l-8.53,2.44c1.75,8.09,2.77,13.26,2.83,15.97.08,3.84-1.45,5.9-4.39,5.96-3.38.07-7.11-5.04-8.61-12l-5.4,1.02s-2.71-.17-4.74-.12c-2.66,2.54-7.46,9.87-10.62,10.16-2.48.28-4.08-1.04-6.19-4.38-4.71,1.23-9.95-.69-10.05-5.43-.09-4.06,2.58-5.92,9.11-6.74,8.59-20.5,10.64-30.03,10.25-48.53-.3-13.76-2.18-27.95-5.43-42.78-1.75-7.86-2.7-9.87-7.14-17.23-2.03.04-3.61.08-4.73.33-7.87,1.3-11.9,2.96-11.97-.42-.04-1.8.6-3.62,1.93-4.56l9.03.03,10.78-2.71,10.59-.68s9.82-5.18,11.18-5.21c2.93-.06,3.86,1.05,3.71,4.66-.24,9.71-1.1,22.15-1.39,29.83.74,2.92,3.5,36.95,4.14,45.74.61,7.21,2.14,15.76,6.54,31.01,4.26-1.45,7.85-2.2,10.56-2.26,3.84-.08,5.7,2.59,8.6,11.33-1.79.49-3.37.75-4.5.77ZM244.94,194.91c-2.99,7.96-3.62,10.24-3.56,12.72.04,2.03,1.2,3.13,3.45,3.09,3.38-.07,5.8-3.06,5.73-6.67-.06-2.71-1.47-5.16-5.62-9.14ZM260.06,173.37l-.26-12.18-4.72-41.21.29-7.68-.54-14.44c-2.05-.63-3.63-1.05-4.76-1.03-2.71.06-6.5,2.17-6.44,4.88.02,1.13,3.24,3.77,3.24,3.77l5.28,14.56,5.07,67.84c.63,8.11,2.11,14.18,3.24,14.15,1.13-.02,2.91-1.19,4.67-3.49l-5.06-25.17Z"/>
    </g>
    <g class="cls-1">
      <path class="cls-3" d="M403.98,189.92c-9.25.2-19.04-3.66-26.86-10.48l-4.14-3.75c-9.89-8.59-15.42-13.67-17.03-14.98-1.38-1.33-2.78-3.33-4.42-6-4.21-6.68-6.38-13.18-9.9-30.04-1.33.93-2.2,2.53-2.16,4.34.01.68,1.31,8.32,1.31,8.32l3.33,39.66,1.91,15.53,5.23,1.92c.98,3.59-2.4,3.66-7.13,4.44-5.85,1.03-8.25,4.92-8.95,14.41-4,3.02-7.85,2.43-7.92-.96l-.41-8.8-2.53-1.98c1.23,4.49,2.26,10.79-3.6,10.91-3.38.07-5.24-2.37-5.34-7.11-.18-8.35.77-16.95,3.06-25.57,1.65-7.03,2.67-12.47,2.6-15.63,0-.23-4.08-32.42-4.08-32.42l-4.07-31.74c-.28-2.7-2.57-4.23-4.85-5.31l-8.58-.04-14.49-1.95c-7.24-.97-11.12-2.92-11.18-5.63-.02-1.13.64-1.82,2.22-1.85,1.58-.03,4.07.36,7.25,1.42,3.41,1.28,8.16,1.41,13.55.39l2.4-3.89c6.1.32,10.62.67,13.79,1.06,11.32,1.56,11.08.89,17.37-.6.73-8.14,2.66-12.7,6.24-14.13,4.93-1.91,19.53-4.93,28.33-5.12,1.13-.02,2.26-.05,3.39.38l19.54,5.68,11.1,2.02c2.95.61,7.6,7.06,7.7,11.8.37,17.15-21.4,33.42-45.32,33.93-3.16.07-6.09.13-9.26-.03-.86,2.05-1.28,3.64-1.25,4.77.04,1.8,1.04,6.3,2.24,9.88,11.1,33.17,25.15,46.19,49.97,45.66,10.38-.22,16.81-5.55,16.64-13.68-.05-2.48-1.05-6.97-1.14-10.81-.14-6.32,3.82-11.14,9.24-11.26,5.19-.11,7.75,3.45,7.91,10.89.44,20.53-13,35.95-31.73,36.35ZM322.31,129.36c-.29,7.68,0,10.39,2.59,15.52,3.72-5.5,1.6-9.74-.12-16.03l-2.47.5ZM324.08,95.92c-1.58.03-3.89,7.98,3.63,22.05,3.85-9.79.65-22.14-3.63-22.05ZM334.57,174.48l-1.33.93s-.83,3.63-1.66,6.58c.58,5.86,1.03,16.23,1.03,16.23,4.94-1.24,6.5-2.17,6.46-4.2-.07-3.16-2.9-8.97-4.48-19.54ZM375.61,77.65c-9.88,2.7-17.09,3.08-22.98,2.3-4.48,1.68-11.87,4.54-11.87,4.54l.33,4.73-2.79,6.83c-1.29,3.19,1.02,5.62,4.13,3.3.23,0,8.22,4.11,16.34,3.94,12.86-.28,23.12-5.92,29.24-15.53,1.08-2.06,2.37-5.24,2.33-7.05-.1-4.51-5.54-5.52-14.74-3.07ZM397.06,77.87c-3.59,11.36-6.9,15.27-15.12,21.32-7.78,5.59-14.28,7.76-22.86,7.94-2.48.05-5.19.11-7.9-.06l.06,2.93c9.07,1.84,13.6,2.42,18.33,2.31,13.31-.29,22.23-5.67,30.08-18.48,1.74-2.97,3.24-6.84,3.19-9.32-.04-2.03-2.13-4.47-5.79-6.65ZM354.45,70.21l.03,1.58,4.96-.11.87-1.6-5.87.13ZM428.82,158.68c-1.72,3.87-2.15,4.79-2.73,9.31l1.13-.02c2.17-3.89,2.61-4.8,3.19-9.32l-1.58.03Z"/>
    </g>
    <g class="cls-1">
      <path class="cls-3" d="M612.78,189.27c-3.37.75-13.93,3.01-18.85,5.37-.89.47-6.15-2.58-14.86-8.49-2.75-1.75-7.09-4.36-13.03-7.62-.37,3.84-.31,6.78.41,8.57,2.17,6.5,3.16,10.32,3.18,11.44.03,1.35-1.52,2.74-3.33,2.78-2.03.04-6.4-3.7-6.65-4.6-.72-2.02-.93-22.33-.93-22.33-.04-2.03-6.04-8-6.04-8,0,0-1.36-.42-2.05-.86-1.42-2.9-4.63-5.32-4.63-5.32l-.25-1.35c-4.32-1.49-5.25-2.6-10.14-9.72-7.83,3.1-13.88,5.26-17.93,6.25-27.37,7.81-31.4,9.48-36.02,15.22l-16.05,20.21c-2.42,2.99-19.48,17.8-23.54,18.34-2.48.28-4.34-2.17-4.62-5.09-.26-1.58,9.81-26.85,9.81-26.85l5.72,3.49s-.06,7.9,1.52,7.87c1.13-.02,3.57-1.88,7.12-4.89-.95-2.01-1.21-3.81-1.24-5.17-.02-1.13-.03-1.35.83-3.63.44-.69,1.28-3.64,2.97-8.64,1.46-5.45,6.22-15.26,13.38-28.96,8.47-15.76,11.69-23.28,12.07-26.67l.13-4.29c.17-2.71,1.92-5.01,3.96-5.05l2.26-.05c.45,0,3.45-7.75,3.21-8.42-.72-2.02-3.09-7.38-3.09-7.38l.82-4.08c1.81.19,4.31,1.04,6.97-1.28-1.21-3.59-1.94-6.28-1.97-7.86-.07-3.16,1.89-6.59,6.97-11.89l4.12,2.62-.76,6.79c3.42,1.73,6.17,3.48,7.56,5.03,3.23,3.32,5.16,8.92,14.13,37.85,2.43,7.85,4.78,12.54,7.31,14.74l14.27,12.79c1.38,1.1,2.79,3.78,3.07,6.25,1.05,6.97,3.32,7.38,5.64,10.26.94,1.79,2.59,4.91,2.59,4.91l8.77,8.84c10.38,10.39,12.21,11.48,20.84,14,7.9-10.78,9.89-12.4,19.1-14.86.53,3.6,1.05,6.98,1.12,9.91.12,5.64-1.38,9.29-3.85,9.79ZM449.03,196.17c-.9.25-2.26.05-2.26.05-2.2,2.75-1.5,3.64-.56,5.43,1.1-1.15,3.8-1.66,3.8-1.66l1.08-2.28,1.81-.04s.87-1.6,1.08-2.28c-.69-.44-3.38.3-4.95.78ZM485.41,145.05c-6.62,7.14-7.49,8.51-10.03,16.47,7.89-.62,13.19-5.93,13.05-12.47-.03-1.58-.5-2.25-3.02-4ZM503.04,93.43c-4.04,11.6-5.07,16.36-7.64,33.12,5.33-4.18,5.98-5.32,7.63-12.58.6-3.62,3.83-10.69,3.48-16.78-.05-2.26-.51-2.92-3.47-3.76ZM527.89,136.24c-6.32.14-14.56,5.5-29.61,19.15,5.62-1.02,10.56-2.26,14.83-3.03,8.08-1.98,11.45-2.96,20.17-6.98-.37-6.54-1.78-9.22-5.39-9.14ZM524.24,123.9c-.7-.89-2.51-1.3-4.99-1.25-11.06.24-20.57,9.47-20.34,20.08.03,1.35.72,2.24,2.08,2.21,1.35-.03,3.13-1.42,3.13-1.42l24.3-14.29-4.18-5.33ZM519.47,91.27c-.7-1.11-1.61-1.55-3.88-1.72-4.28,10.93-4.89,14.1-6.81,29.94,8.1-1.3,9.44-2.01,18.08.74-2.21-18.91-3.2-22.73-7.39-28.96ZM537.09,134.01l-1.34.71c-.4,2.49-.81,4.53,3.08,6.93l2.01-1.17c-1.2-3.13-1.44-3.81-3.75-6.47ZM543.69,146.73c-1.35.03-1.8.49-1.77,1.62.03,1.58,6.49,7.99,7.19,9.1l3.64,1.28c-3.11-8.06-6.13-12.06-9.06-12Z"/>
      <path class="cls-3" d="M692.46,199.98c-2.03.04-3.64-1.5-5.55-6.2l-8.53,2.44c1.75,8.09,2.77,13.26,2.83,15.97.08,3.84-1.45,5.9-4.39,5.96-3.38.07-7.11-5.04-8.61-12.01l-5.4,1.02s-2.71-.17-4.74-.12c-2.65,2.54-7.46,9.87-10.62,10.16-2.48.28-4.08-1.04-6.19-4.38-4.71,1.23-9.95-.69-10.05-5.43-.09-4.06,2.58-5.92,9.11-6.74,8.59-20.5,10.64-30.03,10.25-48.53-.3-13.76-2.18-27.95-5.43-42.77-1.75-7.86-2.7-9.87-7.14-17.23-2.03.04-3.61.08-4.73.33-7.87,1.3-11.9,2.96-11.97-.42-.04-1.8.6-3.62,1.93-4.56l9.03.03,10.78-2.71,10.59-.68s9.82-5.18,11.18-5.21c2.93-.06,3.86,1.05,3.71,4.66-.24,9.71-1.1,22.15-1.39,29.83.74,2.92,3.5,36.95,4.14,45.74.61,7.21,2.14,15.76,6.53,31.01,4.26-1.45,7.85-2.2,10.56-2.26,3.83-.08,5.7,2.59,8.6,11.33-1.8.49-3.37.75-4.5.77ZM651.76,186.18c-2.99,7.97-3.62,10.24-3.56,12.72.04,2.03,1.2,3.13,3.45,3.09,3.38-.07,5.8-3.06,5.73-6.67-.06-2.71-1.47-5.16-5.61-9.14ZM666.87,164.63l-.26-12.18-4.72-41.21.29-7.68-.54-14.44c-2.05-.63-3.63-1.05-4.76-1.03-2.71.06-6.5,2.17-6.44,4.88.02,1.13,3.24,3.77,3.24,3.77l5.28,14.56,5.07,67.84c.63,8.11,2.11,14.18,3.24,14.15s2.91-1.19,4.67-3.49l-5.06-25.17Z"/>
      <path class="cls-3" d="M798.99,188.21l-18.76,9.43s-7.21.83-11.72.93c-6.09.13-9.82-5.21-14.78-5.1-3.16.07-4.7,2.13-4.61,5.97.08,3.61.83,7.21,2.26,10.79,2.23-1.4,2.67-1.86,2.61-4.8l4.07.36c-4.2,14.54-1.51,13.8-1.38,19.67.01.68-.63,2.27-1.48,4.55-4.93,1.91-7.45.16-7.61-7.51-.06-2.93-.38-6.99-1.38-11.93l-2.57-14.39c-14.05-2.63-19.07-5.01-20.77-10.61,0,0-2.87-7.61-2.93-10.32-.03-1.35.64-1.82,3.32-3.01-1.89-4.02-2.62-6.26-2.67-8.52-.05-2.48,1.27-14.47,1.11-21.92-.11-4.96-2.76-13.03-2.78-13.94-.07-3.16-.33-4.96-.57-5.41-.47-.67-2.29-1.31-5-1.7l-1.28-6.97c-7.87,1.3-13.79-.83-13.88-5.12-.11-4.96,14.81-14.77,17.26-16.4,10.91-7.01,24.82-10.92,39.04-11.22,7.22-.16,14.69.59,23.99,2.65,11.11,2.24,20.44,5.66,27.76,10.24,8,4.57,17.28,16.11,17.39,21.52.02.9-.39,2.72-1.47,5,9.9,8.82,12.71,13.72,12.88,21.85.37,17.37-13.91,35.51-36.04,45.92ZM725.75,110.32c-1.05,3.63-1.26,4.32,3.5,5.34-.11-4.96-1.04-6.3-3.5-5.34ZM739.7,150.2l-5.36-18.17c-3.41-11.44-3.43-12.34-5.91-12.29-1.58.03-3.28,5.04-3.2,8.65,0,0,.6,6.99.18,8.57.02.9.71,1.57,2.77,2.65-.09-4.06.35-4.52,3.73-5.05-4.41,15.45-4.77,19.74-1.95,35.48,4.85-5.52,6.71-2.85,11.48-1.38l-1.75-18.47ZM735.23,110.11l.13,5.87c.7,1.11,1.38,1.1.07,3.16l.73,2.47,1.58-.03c.36-4.3,1-6.12-2.5-11.46ZM776.68,105.84c-6.14-2.13-24.03-4.9-29.45-4.79-4.29.09-6.3.81-5.75,5.31,0,0,6.12,43.21,6.39,55.62.09,4.06-.47,9.72-.45,10.62.1,4.51,1.73,6.96,4.66,6.9,2.48-.05,25.67-13.42,25.67-13.42,8.25-4.69,14.9-20.86,14.59-35.53-.23-10.61-7.24-21.74-15.66-24.72ZM790.6,102.6l-17.65-12.49c-1.6-1.1-6.81-1.88-10.2-1.81-6.09.13-14.83,3.48-14.78,5.51.02,1.13,1.4,2,3.2,1.96,1.58-.03,5.4-1.02,6.75-1.05,4.96-.11,13.16,2.88,22.76,8.77,10.29,6.1,16.36,15.68,16.59,26.06.09,4.06-1.34,11.09-3.86,19.95l3.12-1.87s.4-2.27.83-3.63c3.93-6.18,4.09-9.12,4.03-12.05-.28-13.09-7.12-26.71-10.79-29.34ZM820.73,128.37c-1.35.03-5.41.57-7.61,2.87-.44.69-3.03,5.93-7.79,15.74-1.94,4.11-8.13,10.56-18.32,19.36-4.87,4.39-11.94,11.54-20.76,21.21l12.17-.71,7.14-3.76c2-1.4,4.71-1.46,7.28,2.55,14.69-9.57,16.01-11.18,23.79-27.6,3.67-7.75,6.16-17.97,6.03-24.28-.05-2.26-.57-5.41-1.92-5.38ZM792.27,96.02l.02,1.13c3.66,2.18,4.58,3.06,8.97,7.93l1.13-.02c-2.64-7.17-4.02-8.27-10.13-9.04ZM811.68,106.44l-1.11.7c.56,4.95.62,7.66,1.09,8.55.64,8.79,1.82,11.25,5.43,11.17,4.51-.1,4.82-6.88,1.1-11.76l-6.51-8.67ZM826.93,133.43c-1.93,15.17-2.98,19.03-9.41,34.74,4.65-4.39,8.18-8.08,10.14-11.5,1.95-3.65,3.61-10.46,3.49-16.1-.1-4.51-.79-5.4-4.22-7.13Z"/>
      <path class="cls-3" d="M961.17,171.86c-7.26,8.96-11.72,11.31-38.17,20.23-10.98,3.62-15.92,4.86-20.66,4.96-26.4.57-51.78-24.85-52.25-46.96-.43-19.86,13.78-52.22,29.07-65.64,9.53-8.33,21.58-14.69,36.95-14.11,9.72.47,13.31-.29,18.34,2.77,2.29,1.31,8.01,5.25,8.01,5.25l15.04,6.67c12.99,5.82,23.69,20.26,23.96,32.9.35,16.25-8.41,39.23-20.29,53.94ZM882.85,183.02l-3.97-6.01s-9.16-5.9-12.01-12.61c-2.61-5.81-4-7.36-8.37-11.33l-1.54,1.61c1.73,7.19,2.21,8.53,4.8,13.22,4.84,4.41,16.05,22,24.86,22.27,4.07.14,7.63-1.97,7.59-4l-11.36-3.14ZM936.65,91.79l-11.57-2.46-8.23-5.02c-1.14-.65-3.4-.83-7.01-.75-16.47.35-26.38,12.08-26,29.9.24,11.06,2.12,14.85,13,27.04,6.25,7.09,11.72,9.91,18.49,9.76,8.57-.18,16.38-4.64,16.28-9.38-.02-.9-.71-1.56-1.84-1.54-4.07-.14-6.73,1.95-11.47,2.05-7.45.16-13.88-5.12-14.02-11.66-.1-4.74,3.43-8.65,7.94-8.75,3.16-.07,5.7,2.36,5.76,5.52.05,2.48-1.13.02-6.43,5.56,3.91,3.3,5.51,4.17,7.54,4.13,2.26-.05,5.17-1.24,8.96-3.35-2.54-2.88-3.72-4.89-3.75-6.69-.12-5.42,5.84-11.64,11.26-11.75,4.06-.09,6.65,4.82,6.83,12.95.42,19.4-15.45,26.97-28.08,27.47-18.27.62-35.47-22.26-36.01-47.54l-.12-5.64c-5.1,4.4-8.17,8.53-9.23,11.71-.22.46-.61,2.95-1.18,7.93-.4,2.49-3.1,13.38-2.94,20.61.08,3.84,1.05,6.75,4.09,11.88,1.29-3.19,3.71-5.72,5.52-5.76,1.35-.03,2.5.62,2.96,1.29l7.29,13.61s7.78,5.03,9.86,7.01l-1.29,3.19c-2.97-1.52-6.15-2.58-9.09-2.74,1.87,3.12,3.5,5.34,4.87,6.22,3.44,2.41,21.6,7.21,24.76,7.14,11.28-.47,29.21-16.88,31.79-22.81,1.51-3.42,4.74-20.87,5.03-38.94.33-16.03-3.99-28.13-13.97-30.18ZM918.94,76.37s-14.43.76-15.54,1.91c-.44.46-1.09,1.6-1.51,3.19,5.84-1.25,10.35-1.8,13.5-1.87,2.48-.05,6.33.32,11.31,1.11-1.66-3.58-3.25-4.44-7.77-4.35ZM973.76,106.57c-4.02-8.49-7.47-11.58-18.66-17.43,8.6,11.33,12.13,18.25,12.09,26.83.01,11.06-4.19,25.83-9.96,40.85-6.2,16.16-14.24,20.17-15.76,22.91,0,.23-.21.68-.42,1.59,8.02-5.14,13.79-9.33,17.11-12.56,10.38-10.61,19.61-32.93,19.3-47.37-.1-4.51-1.34-9.68-3.7-14.82ZM951.59,93.95c-.23,0-1.12.25-1.8.49.09,4.29,4.84,4.41,4.3,31.96-.11,5.19-.17,12.87.05,23.25,2.02-.5,2.69-.96,3.33-2.56,3.23-7.07,5.67-19.76,5.5-27.88-.22-10.38-7.54-25.35-11.38-25.26Z"/>
    </g>
  </g>
  <g class="cls-1">
    <g class="cls-1">
      <path class="cls-2" d="M112.22,16.76c1.49.76,2.64,1.4,2.79,2.44.19,1.27-1.36,5.72-2.01,6.79-.93,1.43-1.08,1.54-2.37,2.7-1.3,1.08-2.79,1.46-5.08,2.45-2.43,1.17-6.01,3.31-5.82,4.67.04.24.29.28,1,.18,2.46-.36,8.33-3,9.92-3.8,1.67-.81,1.94-2.88,4.48-3.25l1.6-.15c1.91-.28,2.82-.73,5.21-1.57.62-.17,1.17-.33,1.65-.4,2.7-.39,4.48,1.78,4.59,2.5.09.64-.37,1.35-1.9,1.98-3.76,1.52-5.68,2.29-7.22,2.84-2.3.9-5.03,2.28-6.87,3.6-1.99,1.43-4.94,2.91-5.33,7.44-.16,2.22.52,4.15.39,8.8.01.08-.06.17-.04.25,3.84-2.1,7.41-4.9,8.73-5.33l.64-.09c1.75-.25,3.44,1.29,3.6,2.4.08.56.01,1.22-.28,1.99-.77,1.98-1.62,3.4-4.8,3.87-1.99.29-5.23-.21-7.79-.49.05,2.02.25,4.51.53,6.99.73-.03,1.36-.12,1.92-.2,5.09-.74,7.12-2.42,9.32-2.9l.87-.13c1.75-.26,2.79,1.3,2.95,2.41.14.95-.66,3.26-3.37,3.66-2.78.41-8.94-1.13-11.67-2.04.2,1.35.31,2.71.51,4.07.78,5.33,3.29,13.65,4.47,16.73.14.38.26.69.31,1.01.32,2.23-1.64,3.24-2.91,3.43-2.62.38-8.08-4.75-8.51-7.69-.17-1.19.14-2.38.57-3.9.55-1.79,1.37-5.07,1.33-7.02-.03-1.86-.55-8.2-.96-13.26-.44-5.78-.08-9.49.46-11.92,1.05-3.97,5.97-7.53,7.79-9.5.28-.29.41-.55.4-.63s-.1-.15-.26-.12c-2.54.37-14.97,9.33-16.56,9.56-.56.08-.76-.21-.83-.69-.07-.48.15-2.87.07-3.42-.08-.56-1.34-3.05-1.43-3.69-.17-1.19.55-1.79,2.06-2.57,6.08-2.84,13.31-10.63,16.64-15.1.68-.91.77-1.41.7-2.46l.51-.4ZM164.77,80.33c2.08-.22,4.32.1,6.11.17,2.36.06,5.63.15,7.73.09,1.72.07,2.22.16,3.11,1.25.31.44.59.73.65,1.12.36,2.47-14.56,7.08-15.91,7.27-1.19.17-2.34.1-4.31-.02-1.53.06-3.8-.42-5-.33-1.04.07-2.01.13-2.89.26-.87.13-1.66.32-2.43.6-2.42.68-7.3,3.99-9.4,5.19-1.43.78-2.49,1.34-4.24,1.59-.88.13-1.92.2-3.31.16-1.46.05-8.65-.85-10.32-.61-.79.12-1.81.43-3.01,1.09-2.41,1.33-9.02,5.54-14.8,7.11-.31.13-.62.17-.94.22-1.43.21-2.38-.14-3.38-.89-.91-.68-4.85-5.39-4.97-6.26-.22-1.51,2.49-4.67,4.55-4.97.48-.07,2.83-.09,3.39-.17l.32.52c-1.63,1.05-2.76,2.27-2.66,2.91.13.88,1.72.64,2.51.53,3.9-.57,11-3.07,12.78-3.73.85-.29,1.64-.48,2.43-.6,1.35-.2,2.74-.16,4.56.07,4.12.37,9.21.77,12.31.32,1.75-.25,3.63-.69,5.57-1.38,3.47-1.24,10.53-4.62,15.04-6.58,1.38-.53,1.86-1.16,2.82-2.36,1.17-1.47,1.54-2.25,3.37-2.52l.32-.05ZM112.95,40.2c.57,0,1.14,0,1.77-.1,1.03-.15,5.95-1.52,7.14-1.69,4.14-.6,6.59,2.86,6.87,4.77.12.79.11,1.85.07,3.24-.3,3.54-.29,9.71-.1,12.68.1.72.15,1.6.29,2.56.49,3.34,1.5,8.07,3.51,11.83.88,1.58,1.5,3.03,1.72,4.54.13.87.1,1.77-.01,2.68-.35,2.65-.54,4.63-4.44,5.2-1.27.19-2.22-.17-2.72-.82-1.2-1.53-1.94-3.86-2.29-5.68-.2-1.35.34-6.06.14-8.55-.18-2.9-.69-6.97-1.02-10.33-.19-2.41-.54-13.73-.72-15-.59-4.06-2.78-4.06-4.16-4.02-2.26.09-3.28.32-6.11-.65l.07-.66ZM140.76,52.15c-.21-2-.58-2.27-1.49-2.95-.64-.48-1.07-.65-1.12-.97-.02-.16.18-1.57,1.29-1.73,1.03-.15,5.73,1.44,6.44,1.82.52.25.87.36.96,1,.06.4.06.97-.05,1.88-.1.99-.03,3.17.03,5.76.96-.63,2.67-1.77,2.57-2.41-.05-.32-.17-.62-1.87-2.81l.41-.55c1.05,1.07,2.52,1.66,3.95,1.46.87-.13,1.89-.44,2.65-.79,1.21-.58,2.49-1.34,3.52-1.49,1.99-.29,2.6,1.65,2.77,2.85.15,1.03-.15,2.3-1.41,3.13-1.78,1.15-3.52,2.06-6.47,2.97-1.41.37-3.72,1.19-5.81,1.9.06,1.53.2,3.06.39,4.33.17,1.19,1.65,8.53,5.47,7.97,3.34-.49,17.51-12.46,18.63-13.68.71-.67.96-1.2.91-1.59-.17-1.19-2.18-2.69-4.64-4.52l.33-.53c2.44.62,6.04,1.88,7.1,1.89,1.06,0,1.89.13,2.12,1.15.51,3.5.64,4.38-2.17,6.81-1.73,1.47-3.73,2.25-5.07,3.09-2,1.35-4.53,2.93-5.99,5.18-1.13,1.71-1.62,2.27-2.94,3.27-1.45,1.19-2.81,2.44-3.73,3.39-.99,1.04-2.18,1.78-3.69,2-1.11.16-2.03-.03-2.83-.48-1.42-.85-1.85-2.09-2.65-3.11-1.23-1.77-3.65-4.99-4.33-5.79-1.17-1.37-1.95-4.43-2.24-7.55-1.66.32-2.66.14-7.27-.32l-.02-.73,1.43-.21c1.43-.21,5.1-1.23,5.51-1.78l-.66-7.86ZM151.79,35.27c.42.1,2.55.77,4.7.45.48-.07,3.06-.77,3.69-.86,2.71-.39,3.77,1.89,3.88,2.68.28,1.91-5.33,5.24-8.91,5.76-.96.14-1.92.2-2.84,0-5.35-1.01-10.66-3.48-12.06-8.64-.72-2.74-1.71-11.2-2.46-12.96-.37-.84-.79-1.51-.87-2.07-.27-1.83,3.01-3.28,3.89-3.41.64-.09,1.23.06,1.93.45,1.51.92,1.24,1.85,2.49,3.13l-.42.47c-.68-.23-1.26-.3-1.66-.25-.64.09-1,.39-.92.95.02.16.05.32.15.47.67,1.28,2.05,1.81,2.72,4.15.2.78.38,2.06.6,3.57,4.58-3.67,5.87-5.97,5.8-6.45-.05-.32-.33-.6-.88-1.01l.25-.52c.75.13,1.41.2,2.05.11.72-.1,4.03-1.32,4.83-1.43,1.27-.19,4.49.16,4.74,1.91.13.88-1.11,5.2-4.4,6-1.71.49-10.23,2.22-12.08,2.9.88,4.91,1.75,9.82,6.13,9.18.88-.13,3.66-1.1,3.54-1.9-.04-.24-.14-.39-.4-.51-.8-.45-2.08-.91-3.73-1.65l.25-.52Z"/>
      <path class="cls-2" d="M200.45,47.59c.3.93.6,1.86.72,2.74.61,4.21-2.38,7.09-5.4,7.53-3.02.44-4.57.42-6.16-.48-5.72-3.06-7.17-4.64-7.62-7.74-.2-1.35-.11-2.99.36-4.76,1.11-4.63,4.3-18.41,6.92-24.4l.66.07c1.24,4.04,3.14,5.96,4.78,10.51l5.74,16.54ZM202.68,41.18c2.83-2.28,4.36-4.05,5.5-5.19-.35-2.95-.57-6.17-.75-7.36-.16-1.11-.88-2.15-1-2.94-.1-.71.7-1.32,1.02-1.37.32-.05.66.07,1.1.33,1.07.66,2.11,1.07,2.73,1.47.36.27.84.77.96,1.57.06.4.05.89-.12,1.4-.46,1.29-.66,2.7-.71,4.57.39-.14.7-.18,1.1-.24,1.3-.03,2.67-.07,3.75.1.83.12,1.6.42,1.75,1.45.1.72-.12,4.73-3.78,5.26-1.43.21-1.92.2-2.24.24l.63,4.29c.33.03.58.08.9.03.87-.13,1.69-.65,2.51-1.18.52-.32,1.15-.49,1.7-.57,2.15-.31,3.23,1.56,3.48,2.17,3.08-1.18,4.46-5.04,4.89-6.56.97-3.39-.07-10.55-.33-12.3-1.08-7.4-1.8-8.43-7.28-7.63-3.66.53-9.62,1.97-12.88,3.01l-.25-.61c2.68-2.26,8.68-4.51,10.41-5.5,1.65-.97,3.82-2.18,5.97-2.49,2.15-.31,5.17-.19,6.71.32,2.48.86,3.35,2.92,4.07,7.85.29,1.99.43,3.51.46,4.24.27,6.86-1.91,15.87-6.04,18.75-1.81,1.48-4.42,2.59-4.65,2.63-.24.03-.41-.02-.74-.05-.01.49-.19.92-.36,1.43-.95,2.41-1.38,3.37-5.24,5.31l.59,2.35c.86.36,1.42.85,1.5,1.41.1.72-.37,1.35-.85,1.99.32,1.66.57,3.33.77,4.76,2.24-2.44,3.08-3.37,4.67-3.6,2.7-.39,4.43,3.09,4.67,4.76.2,1.35-.11,2.62-1.16,3.74-1.07,1.05-10.37,9.06-16.42,9.95-.71.1-6.34.52-6.84-2.9-.16-1.11.73-2.22,1.37-3.45l.59.16c-.02.41-.12.83-.08,1.15.08.56.38.92,1.65.73,2.23-.32,4.44-2.43,5.54-3.81-.41-1.73-1.21-3.88-2.16-5.37-.39.14-.7.18-1.1.24-.48.07-.97.06-1.39-.04l-3.3-.9c-.85-.28-1.1-.9-1.27-2.58l.53-.24c.55.41.97.51,1.37.45.95-.14,4.75-3.62,6.03-4.86-.07-.48-.06-.97-.14-1.52-1.86.03-5.46-1.23-7.95-3.31l.33-.53c.49.01.98.02,1.38-.04,2.31-.34,3.55-1.82,5.16-5.3-.26-2.32-.48-4.4-.71-5.99-2.32.26-4.62.59-5.81.85l-.24-.53ZM269.01,37.12c2.06-.38,2.88-.83,4.27-2.49.49-.56,3.28-4.22,3.01-6.12-.05-.32-1.34-4.19-7.15-3.34-2.7.39-6.71,1.87-11.12,3.97-3.87,1.86-7.14,4.53-9.53,5.94-3.08,1.75-5.35,2.89-8.29,3.32-.64.09-2.23.32-2.44-1.11-.08-.56.3-3.53.28-4.18.03-.9.13-1.89,1.36-4.02,1.24-2.05,5.49-7.46,6.4-9.05.12-.26.17-.51.12-.83-.05-.32-.26-.69-.54-.9-.18-.14-.68-.23-1.21-.47-1.79-.55-3.27-2.94-3.91-7.31-.09-.64-.21-.86-.87-.93-.82-.04-2.98.19-4.83.3l-.09-.64c5.12-2.78,8.52-5.06,11.16-5.93,1.48-.46,8.47-3.18,9.27-3.3,2.23-.32,3.23,2.7,3.33,3.33.08.56-.21,1.33-1.23,2.13-1.02.8-6.5,4.44-7.2,5.19-.35.38-.54.73-.47,1.21.04.24.06.4.17.62.39,1,.8,1.02,4.27,1.41.91.11,4.09.79,4.23,1.74.22,1.51-5.22,7.1-8.7,9.96-3.27,2.67-6.48,5.17-7.48,6.04-.85.85-1.05,1.13-.95,1.84.08.56.78.86,2.05.68,1.35-.2,3.37-.82,5.3-1.5,3-1.17,14.82-7.52,19.26-8.82,1.17-.33,2.18-.64,2.98-.76,4.93-.72,10.44,2.54,10.8,5,.12.79-.43,1.52-1.7,2.85-2.01,1.84-5.23,5.88-6.3,6.93-.36.3-.73.59-1.28.67s-.81.04-2.96-.79v-.65ZM259.82,78.25c.52-.32,1.54-1.12,2.15-1.94,1.04-1.21.3-6.3-.07-8.84-2.23-13.08-2.1-16.1-1.63-30.14-.01-.65,0-1.14-.07-1.61-.08-.56-.31-1.01-.72-1.6-.11-.23-.22-.37-.24-.53-.1-.72,1.15-1.55,1.71-1.63s5.39.76,5.53,1.71c.05.32-.08.58-.33,1.1-2.11,3.88-5.08,11.95-3.78,20.86.49,3.34,1.51,8.15,2.19,11.13.37,1.41,2.31,8.03,2.54,9.62.41,2.78-1.28,4-1.76,4.07-.4.06-.83-.12-1.25-.22-.93-.27-2.4-.87-4.11-1.43l-.16-.54Z"/>
    </g>
  </g>
</svg>